# Blender 4.1.1
# www.blender.org
mtllib 3D_CouterBarman.mtl
o Cube:063.001
v -2.977329 1.488485 0.439562
v -2.987329 1.488485 0.429562
v -2.977329 1.478485 0.429562
v -2.982322 1.488485 0.438226
v -2.977329 1.483491 0.438226
v -2.982111 1.483703 0.436928
v -2.985993 1.483491 0.429562
v -2.985993 1.488485 0.434555
v -2.984695 1.483703 0.434344
v -2.977329 1.479821 0.434555
v -2.982322 1.479821 0.429562
v -2.982111 1.481119 0.434344
v -2.977329 1.517041 0.439562
v -2.977329 1.527041 0.429562
v -2.987329 1.517041 0.429562
v -2.977329 1.522034 0.438226
v -2.982322 1.517041 0.438226
v -2.982111 1.521823 0.436928
v -2.982322 1.525705 0.429562
v -2.977329 1.525705 0.434555
v -2.982111 1.524407 0.434344
v -2.985993 1.517041 0.434555
v -2.985993 1.522034 0.429562
v -2.984695 1.521823 0.434344
v -2.977329 1.488485 0.038881
v -2.977329 1.478485 0.048881
v -2.987329 1.488485 0.048881
v -2.977329 1.483491 0.040217
v -2.982322 1.488485 0.040217
v -2.982111 1.483703 0.041515
v -2.982322 1.479821 0.048881
v -2.977329 1.479821 0.043887
v -2.982111 1.481119 0.044099
v -2.985993 1.488485 0.043887
v -2.985993 1.483491 0.048881
v -2.984695 1.483703 0.044099
v -2.977329 1.517041 0.038881
v -2.987329 1.517041 0.048881
v -2.977329 1.527041 0.048881
v -2.982322 1.517041 0.040217
v -2.977329 1.522034 0.040217
v -2.982111 1.521823 0.041515
v -2.985993 1.522034 0.048881
v -2.985993 1.517041 0.043887
v -2.984695 1.521823 0.044099
v -2.977329 1.525705 0.043887
v -2.982322 1.525705 0.048881
v -2.982111 1.524407 0.044099
v 3.007442 1.478485 0.429562
v 3.017442 1.488485 0.429562
v 3.007442 1.488485 0.439562
v 3.012435 1.479821 0.429562
v 3.007442 1.479821 0.434555
v 3.012224 1.481119 0.434344
v 3.016106 1.488485 0.434555
v 3.016106 1.483491 0.429562
v 3.014808 1.483703 0.434344
v 3.007442 1.483491 0.438226
v 3.012435 1.488485 0.438226
v 3.012224 1.483703 0.436928
v 3.017442 1.517041 0.429562
v 3.007442 1.527041 0.429562
v 3.007442 1.517041 0.439562
v 3.016106 1.522034 0.429562
v 3.016106 1.517041 0.434555
v 3.014808 1.521823 0.434344
v 3.007442 1.525705 0.434555
v 3.012435 1.525705 0.429562
v 3.012224 1.524407 0.434344
v 3.012435 1.517041 0.438226
v 3.007442 1.522034 0.438226
v 3.012224 1.521823 0.436928
v 3.007442 1.478485 0.048881
v 3.007442 1.488485 0.038881
v 3.017442 1.488485 0.048881
v 3.007442 1.479821 0.043887
v 3.012435 1.479821 0.048881
v 3.012224 1.481119 0.044099
v 3.012435 1.488485 0.040217
v 3.007442 1.483491 0.040217
v 3.012224 1.483703 0.041515
v 3.016106 1.483491 0.048881
v 3.016106 1.488485 0.043887
v 3.014808 1.483703 0.044099
v 3.007442 1.517041 0.038881
v 3.007442 1.527041 0.048881
v 3.017442 1.517041 0.048881
v 3.007442 1.522034 0.040217
v 3.012435 1.517041 0.040217
v 3.012224 1.521823 0.041515
v 3.012435 1.525705 0.048881
v 3.007442 1.525705 0.043887
v 3.012224 1.524407 0.044099
v 3.016106 1.517041 0.043887
v 3.016106 1.522034 0.048881
v 3.014808 1.521823 0.044099
vn -0.1296 -0.9831 -0.1296
vn 0.1296 -0.9831 -0.1296
vn 0.1296 -0.9831 0.1296
vn -0.1296 -0.9831 0.1296
vn 0.9831 -0.1296 -0.1296
vn 0.9831 0.1296 -0.1296
vn 0.9831 0.1296 0.1296
vn 0.9831 -0.1296 0.1296
vn -0.9831 -0.1296 0.1296
vn -0.9831 0.1296 0.1296
vn -0.9831 0.1296 -0.1296
vn -0.9831 -0.1296 -0.1296
vn 0.1296 0.9831 -0.1296
vn -0.1296 0.9831 -0.1296
vn -0.1296 0.9831 0.1296
vn 0.1296 0.9831 0.1296
vn -0.1296 -0.1296 -0.9831
vn -0.1296 0.1296 -0.9831
vn 0.1296 0.1296 -0.9831
vn 0.1296 -0.1296 -0.9831
vn -0.1296 -0.1296 0.9831
vn -0.4916 -0.1216 0.8623
vn -0.4474 -0.4474 0.7744
vn -0.1216 -0.4916 0.8623
vn -0.8623 -0.1216 0.4916
vn -0.7744 -0.4474 0.4474
vn -0.8623 -0.4916 0.1216
vn -0.4915 -0.8623 0.1216
vn -0.4474 -0.7744 0.4474
vn -0.1216 -0.8623 0.4915
vn -0.1296 0.1296 0.9831
vn -0.1216 0.4916 0.8623
vn -0.4474 0.4473 0.7744
vn -0.4916 0.1216 0.8623
vn -0.1216 0.8623 0.4915
vn -0.4474 0.7744 0.4474
vn -0.4916 0.8623 0.1216
vn -0.8623 0.4916 0.1216
vn -0.7744 0.4474 0.4474
vn -0.8623 0.1216 0.4916
vn -0.1216 -0.4915 -0.8623
vn -0.4474 -0.4474 -0.7744
vn -0.4915 -0.1216 -0.8623
vn -0.1216 -0.8623 -0.4916
vn -0.4474 -0.7744 -0.4474
vn -0.4915 -0.8623 -0.1216
vn -0.8623 -0.4916 -0.1216
vn -0.7744 -0.4474 -0.4474
vn -0.8623 -0.1216 -0.4916
vn -0.4915 0.1216 -0.8623
vn -0.4473 0.4474 -0.7744
vn -0.1216 0.4915 -0.8623
vn -0.8623 0.1216 -0.4916
vn -0.7744 0.4474 -0.4474
vn -0.8623 0.4916 -0.1216
vn -0.4916 0.8623 -0.1216
vn -0.4474 0.7744 -0.4474
vn -0.1216 0.8623 -0.4916
vn 0.4915 -0.8623 0.1216
vn 0.4474 -0.7744 0.4474
vn 0.1216 -0.8623 0.4915
vn 0.8623 -0.4916 0.1216
vn 0.7744 -0.4473 0.4474
vn 0.8623 -0.1216 0.4916
vn 0.4916 -0.1216 0.8623
vn 0.4474 -0.4474 0.7744
vn 0.1296 -0.1296 0.9831
vn 0.1216 -0.4916 0.8623
vn 0.8623 0.4915 0.1216
vn 0.7744 0.4474 0.4474
vn 0.8623 0.1216 0.4916
vn 0.4916 0.8623 0.1216
vn 0.4474 0.7744 0.4474
vn 0.1216 0.8623 0.4915
vn 0.1216 0.4916 0.8623
vn 0.4474 0.4474 0.7744
vn 0.1296 0.1296 0.9831
vn 0.4916 0.1216 0.8623
vn 0.1216 -0.8623 -0.4916
vn 0.4474 -0.7744 -0.4474
vn 0.4915 -0.8623 -0.1216
vn 0.1216 -0.4916 -0.8623
vn 0.4474 -0.4473 -0.7744
vn 0.4915 -0.1216 -0.8623
vn 0.8623 -0.1216 -0.4916
vn 0.7744 -0.4474 -0.4474
vn 0.8623 -0.4916 -0.1216
vn 0.1216 0.4915 -0.8623
vn 0.4474 0.4473 -0.7744
vn 0.4915 0.1216 -0.8623
vn 0.1216 0.8623 -0.4916
vn 0.4474 0.7744 -0.4474
vn 0.4916 0.8623 -0.1216
vn 0.8623 0.4916 -0.1216
vn 0.7744 0.4474 -0.4474
vn 0.8623 0.1216 -0.4916
vt 0.014669 0.019613
vt 0.986361 0.021232
vt 0.985002 0.083020
vt 0.015798 0.081261
vt 0.988906 0.021466
vt 0.993558 0.021906
vt 0.991963 0.083897
vt 0.987405 0.083412
vt 0.013418 0.081591
vt 0.008886 0.082136
vt 0.007471 0.020301
vt 0.012117 0.019842
vt 0.984237 0.170824
vt 0.003703 0.170171
vt 0.003496 0.107800
vt 0.984526 0.108423
vt 0.014665 0.017094
vt 0.014660 0.012463
vt 0.986389 0.014083
vt 0.986369 0.018714
vt 0.015768 0.083776
vt 0.014648 0.083453
vt 0.015003 0.082698
vt 0.015784 0.082939
vt 0.013973 0.082521
vt 0.014589 0.082218
vt 0.014211 0.081471
vt 0.015007 0.081360
vt 0.015080 0.082123
vt 0.015795 0.082098
vt 0.015730 0.088407
vt 0.015727 0.089245
vt 0.014933 0.089267
vt 0.014872 0.088398
vt 0.015721 0.090087
vt 0.014898 0.089880
vt 0.002649 0.107803
vt 0.002663 0.106977
vt 0.003490 0.106954
vt 0.007222 0.082321
vt 0.008057 0.082228
vt 0.008284 0.083060
vt 0.007718 0.083255
vt 0.009098 0.082976
vt 0.009256 0.083802
vt 0.008337 0.083674
vt 0.014667 0.017933
vt 0.013885 0.018044
vt 0.013824 0.017143
vt 0.014668 0.018774
vt 0.013868 0.018727
vt 0.013816 0.019670
vt 0.012964 0.019758
vt 0.012781 0.018939
vt 0.013352 0.018757
vt 0.011977 0.019019
vt 0.011850 0.018188
vt 0.012754 0.018331
vt 0.013824 0.012462
vt 0.013838 0.011648
vt 0.014659 0.011625
vt 0.007098 0.018702
vt 0.007298 0.019504
vt 0.006503 0.019631
vt 0.006290 0.019089
vt 0.006635 0.020378
vt 0.005796 0.020448
vt 0.005904 0.019636
vt 0.003704 0.171018
vt 0.002907 0.171052
vt 0.002857 0.170191
vt 0.003692 0.171869
vt 0.002871 0.171667
vt 0.985802 0.083139
vt 0.985737 0.083887
vt 0.984998 0.083857
vt 0.986605 0.083274
vt 0.986281 0.084046
vt 0.986969 0.084516
vt 0.985984 0.085086
vt 0.985768 0.084409
vt 0.985008 0.085533
vt 0.985000 0.084697
vt 0.992793 0.083981
vt 0.992666 0.084775
vt 0.991798 0.084735
vt 0.993630 0.084067
vt 0.993253 0.084888
vt 0.984533 0.107576
vt 0.985360 0.107601
vt 0.985373 0.108426
vt 0.985061 0.091843
vt 0.985054 0.091001
vt 0.985879 0.090929
vt 0.985980 0.091524
vt 0.985050 0.090163
vt 0.985910 0.090102
vt 0.986745 0.090101
vt 0.986479 0.090998
vt 0.986374 0.020394
vt 0.987373 0.020522
vt 0.987209 0.021309
vt 0.986369 0.019552
vt 0.987164 0.019551
vt 0.987243 0.020144
vt 0.987189 0.018748
vt 0.988026 0.018805
vt 0.987732 0.019659
vt 0.988060 0.021387
vt 0.988081 0.020603
vt 0.989015 0.020633
vt 0.986394 0.013245
vt 0.987266 0.013303
vt 0.987223 0.014094
vt 0.984246 0.172522
vt 0.984235 0.171671
vt 0.985033 0.171707
vt 0.985067 0.172322
vt 0.985084 0.170846
vt 0.995233 0.022064
vt 0.994394 0.021987
vt 0.994580 0.021226
vt 0.995187 0.021292
vt 0.993733 0.021083
vt 0.988060 0.014094
vt 0.987868 0.013285
vt 0.987552 0.012781
s 1
usemtl Material.014
f 26/1/1 73/2/2 49/3/3 3/4/4
f 75/5/5 87/6/6 61/7/7 50/8/8
f 2/9/9 15/10/10 38/11/11 27/12/12
f 86/13/13 39/14/14 14/15/15 62/16/16
f 25/17/17 37/18/18 85/19/19 74/20/20
f 1/21/21 4/22/22 6/23/23 5/24/24
f 4/22/22 8/25/25 9/26/26 6/23/23
f 2/9/9 7/27/27 9/26/26 8/25/25
f 7/27/27 11/28/28 12/29/29 9/26/26
f 3/4/4 10/30/30 12/29/29 11/28/28
f 10/30/30 5/24/24 6/23/23 12/29/29
f 6/23/23 9/26/26 12/29/29
f 13/31/31 16/32/32 18/33/33 17/34/34
f 16/32/32 20/35/35 21/36/36 18/33/33
f 14/15/15 19/37/37 21/38/36 20/39/35
f 19/40/37 23/41/38 24/42/39 21/43/36
f 15/10/10 22/44/40 24/42/39 23/41/38
f 22/44/40 17/45/34 18/46/33 24/42/39
f 18/46/33 21/43/36 24/42/39
f 25/17/17 28/47/41 30/48/42 29/49/43
f 28/47/41 32/50/44 33/51/45 30/48/42
f 26/1/1 31/52/46 33/51/45 32/50/44
f 31/52/46 35/53/47 36/54/48 33/55/45
f 27/12/12 34/56/49 36/54/48 35/53/47
f 34/56/49 29/57/43 30/58/42 36/54/48
f 30/58/42 33/55/45 36/54/48
f 37/18/18 40/59/50 42/60/51 41/61/52
f 40/62/50 44/63/53 45/64/54 42/65/51
f 38/11/11 43/66/55 45/64/54 44/63/53
f 43/66/55 47/67/56 48/68/57 45/64/54
f 39/14/14 46/69/58 48/70/57 47/71/56
f 46/69/58 41/72/52 42/73/51 48/70/57
f 42/65/51 45/64/54 48/68/57
f 49/3/3 52/74/59 54/75/60 53/76/61
f 52/74/59 56/77/62 57/78/63 54/75/60
f 50/8/8 55/79/64 57/78/63 56/77/62
f 55/79/64 59/80/65 60/81/66 57/78/63
f 51/82/67 58/83/68 60/81/66 59/80/65
f 58/83/68 53/76/61 54/75/60 60/81/66
f 54/75/60 57/78/63 60/81/66
f 61/7/7 64/84/69 66/85/70 65/86/71
f 64/84/69 68/87/72 69/88/73 66/85/70
f 62/16/16 67/89/74 69/90/73 68/91/72
f 67/92/74 71/93/75 72/94/76 69/95/73
f 63/96/77 70/97/78 72/94/76 71/93/75
f 70/97/78 65/98/71 66/99/70 72/94/76
f 66/99/70 69/95/73 72/94/76
f 73/2/2 76/100/79 78/101/80 77/102/81
f 76/100/79 80/103/82 81/104/83 78/105/80
f 74/20/20 79/106/84 81/104/83 80/103/82
f 79/106/84 83/107/85 84/108/86 81/104/83
f 75/5/5 82/109/87 84/110/86 83/111/85
f 82/109/87 77/102/81 78/101/80 84/110/86
f 78/105/80 81/104/83 84/108/86
f 85/19/19 88/112/88 90/113/89 89/114/90
f 88/115/88 92/116/91 93/117/92 90/118/89
f 86/13/13 91/119/93 93/117/92 92/116/91
f 91/120/93 95/121/94 96/122/95 93/123/92
f 87/6/6 94/124/96 96/122/95 95/121/94
f 94/125/96 89/114/90 90/113/89 96/126/95
f 90/113/89 93/127/92 96/126/95
f 27/12/12 38/11/11 44/63/53 34/56/49
f 34/56/49 44/63/53 40/62/50 29/57/43
f 29/49/43 40/59/50 37/18/18 25/17/17
f 1/21/21 13/31/31 17/34/34 4/22/22
f 4/22/22 17/45/34 22/44/40 8/25/25
f 8/25/25 22/44/40 15/10/10 2/9/9
f 2/9/9 27/12/12 35/53/47 7/27/27
f 7/27/27 35/53/47 31/52/46 11/28/28
f 11/28/28 31/52/46 26/1/1 3/4/4
f 14/15/15 39/14/14 47/71/56 19/37/37
f 19/40/37 47/67/56 43/66/55 23/41/38
f 23/41/38 43/66/55 38/11/11 15/10/10
f 3/4/4 49/3/3 53/76/61 10/30/30
f 10/30/30 53/76/61 58/83/68 5/24/24
f 5/24/24 58/83/68 51/82/67 1/21/21
f 50/8/8 61/7/7 65/86/71 55/79/64
f 55/79/64 65/98/71 70/97/78 59/80/65
f 59/80/65 70/97/78 63/96/77 51/82/67
f 25/17/17 74/20/20 80/103/82 28/47/41
f 28/47/41 80/103/82 76/100/79 32/50/44
f 32/50/44 76/100/79 73/2/2 26/1/1
f 39/14/14 86/13/13 92/116/91 46/69/58
f 46/69/58 92/116/91 88/115/88 41/72/52
f 41/61/52 88/112/88 85/19/19 37/18/18
f 13/31/31 63/96/77 71/93/75 16/32/32
f 16/32/32 71/93/75 67/92/74 20/35/35
f 20/39/35 67/89/74 62/16/16 14/15/15
f 61/7/7 87/6/6 95/121/94 64/84/69
f 64/84/69 95/121/94 91/120/93 68/87/72
f 68/91/72 91/119/93 86/13/13 62/16/16
f 74/20/20 85/19/19 89/114/90 79/106/84
f 79/106/84 89/114/90 94/125/96 83/107/85
f 83/111/85 94/124/96 87/6/6 75/5/5
f 49/3/3 73/2/2 77/102/81 52/74/59
f 52/74/59 77/102/81 82/109/87 56/77/62
f 56/77/62 82/109/87 75/5/5 50/8/8
f 51/82/67 63/96/77 13/31/31 1/21/21
